# ProBuilder 5.2.3
# https://unity3d.com/unity/features/worldbuilding/probuilder
# 1/11/2025 7:05:00 PM

mtllib ./FlipperRight.mtl
o FlipperRight

g FlipperRight
v -0.35 0 -0.3100002
v -0.3309937 0 -0.3148947
v -0.1437378 0.04821777 -0.1600001
v -0.3651733 0 -0.2998164
v -0.31 0 -0.3100002
v -0.12 0 -0.2050002
v 0.06999999 0 -0.1000001
v 0.09265137 0 -0.07692564
v 0.09999996 0 -0.05000019
v 0.08734131 0 -0.01338017
v 0.06 0 0.00999999
v 0.02984619 0 0.01665413
v 0 0 0
v -0.175 0 -0.12
v -0.35 0 -0.24
v -0.366333 0 -0.2600775
v -0.37 0 -0.28
v 0.06 -0.29 0.00999999
v 0.08734131 -0.2900085 -0.01338017
v -0.14375 -0.29 -0.1600001
v 0.02984619 -0.2900085 0.01665413
v 0.09999996 -0.29 -0.05000019
v 0.09265137 -0.2900085 -0.07692564
v 0.06999999 -0.29 -0.1000001
v -0.12 -0.29 -0.2050002
v -0.31 -0.29 -0.3100002
v -0.3309937 -0.2900085 -0.3148947
v -0.35 -0.29 -0.3100002
v -0.3651733 -0.2900085 -0.2998164
v -0.37 -0.29 -0.28
v -0.366333 -0.2900085 -0.2600775
v -0.35 -0.29 -0.24
v -0.175 -0.29 -0.12
v 0 -0.29 0

vt 0.3499997 -0.3099982
vt 0.3309934 -0.3148927
vt 0.1437998 -0.1601169
vt 0.365173 -0.2998143
vt 0.3099997 -0.3099983
vt 0.1199999 -0.2049992
vt -0.06999993 -0.1000001
vt -0.09265129 -0.07692569
vt -0.09999988 -0.05000035
vt -0.08734123 -0.0133804
vt -0.05999995 0.009999772
vt -0.02984617 0.01665399
vt 0 0
vt 0.1749998 -0.1199991
vt 0.3499997 -0.2399982
vt 0.3663327 -0.2600755
vt 0.3699997 -0.279998
vt 0.05996357 0.009961695
vt 0.08730488 -0.01341847
vt -0.1437864 -0.1600384
vt 0.02980976 0.01661584
vt 0.09996353 -0.05003849
vt 0.09261493 -0.07696393
vt 0.06996356 -0.1000384
vt -0.1200364 -0.2050385
vt -0.3100364 -0.3100385
vt -0.3310301 -0.314933
vt -0.3500364 -0.3100385
vt -0.3652098 -0.2998547
vt -0.3700364 -0.2800383
vt -0.3663694 -0.2601158
vt -0.3500364 -0.2400383
vt -0.1750364 -0.1200383
vt -0.2121909 1.196632E-17
vt 0 -0.29
vt -0.2121909 -0.29
vt -0.4243819 -0.29
vt -0.4243819 2.393264E-17
vt 0.3273517 0
vt 0.3273517 -0.2900085
vt 0.3064157 -0.29
vt 0.3064157 0
vt 0.3464131 0
vt 0.3464131 -0.29
vt -0.389669 -0.2900085
vt -0.389669 0
vt -0.3645946 0
vt -0.3645946 -0.29
vt -0.4092942 -0.29
vt -0.4092942 0
vt -0.01786424 -0.29
vt -0.03687691 -0.2900085
vt -0.03687691 0
vt -0.01786424 0
vt -0.05391175 -0.29
vt -0.05391175 0
vt 0.06023552 0
vt 0.06023552 -0.2900085
vt 0.02551905 -0.29
vt 0.02551905 0
vt 0.09762655 0
vt 0.09762655 -0.29
vt 0.02056789 0
vt 0.02056789 -0.2900085
vt -0.00644085 -0.29
vt -0.00644085 0
vt 0.05185794 0
vt 0.05185794 -0.29
vt 0.06081634 -0.29
vt 0.03195014 -0.2900085
vt 0.03195014 0
vt 0.06081634 0
vt 0.4212677 1.931918E-10
vt 0.2041847 1.931918E-10
vt -0.01289821 1.931918E-10
vt -0.01289821 -0.29
vt 0.2041847 -0.29
vt 0.4212677 -0.29

vn -0.3649313 0.4523947 -0.8137348
vn 0.008500107 0.6151196 -0.7883879
vn -0.02419178 0.9997068 -0.001035028
vn -0.589707 0.6951671 -0.4110819
vn 0.3480153 0.3089635 -0.8851141
vn 0.4127536 0.5213387 -0.7468872
vn 0.5688952 0.3101096 -0.7617022
vn 0.6717988 0.6216016 -0.4028619
vn 0.8855234 0.4636633 0.02940236
vn 0.6018136 0.6855876 0.4096217
vn 0.3964692 0.4581369 0.7955644
vn -0.1634469 0.5890152 0.7914203
vn -0.5063596 0.2824655 0.8147473
vn -0.4829926 0.5201818 0.7043642
vn -0.6386477 0.309354 0.7045774
vn -0.706359 0.6180242 0.345113
vn -0.8900126 0.4552322 -0.02532383
vn 0.396523 -0.4579389 0.7956516
vn 0.5739962 -0.7194301 0.3910865
vn -7.448785E-06 -1 1.408131E-06
vn -0.09936955 -0.7303337 0.6758242
vn 0.8856117 -0.4634932 0.02942609
vn 0.6031353 -0.7184857 -0.3464191
vn 0.539952 -0.4509454 -0.7107039
vn 0.216311 -0.8944272 -0.3914199
vn 0.3203568 -0.4505635 -0.8332851
vn -0.007999712 -0.7170327 -0.6969937
vn -0.3650261 -0.451905 -0.8139643
vn -0.5594501 -0.7311161 -0.3904931
vn -0.8902026 -0.4548601 -0.0253299
vn -0.6319785 -0.7179765 0.2917411
vn -0.6047709 -0.450856 0.6564915
vn -0.252912 -0.8944272 0.3688299
vn -0.4712852 -0.4475268 0.7600067

usemtl Paddle
f 13/13/13 14/34/14 34/35/34
f 14/34/14 33/36/33 34/35/34
f 15/38/15 32/37/32 33/36/33
f 14/34/14 15/38/15 33/36/33
f 6/74/6 25/77/25 5/73/5
f 25/77/25 6/74/6 7/75/7
f 24/76/24 25/77/25 7/75/7
f 25/77/25 26/78/26 5/73/5
f 3/3/3 2/2/2 1/1/1
f 1/1/1 4/4/4 3/3/3
f 6/6/6 5/5/5 2/2/2
f 2/2/2 3/3/3 6/6/6
f 7/7/7 6/6/6 3/3/3
f 3/3/3 8/8/8 7/7/7
f 9/9/9 8/8/8 3/3/3
f 3/3/3 10/10/10 9/9/9
f 11/11/11 10/10/10 3/3/3
f 3/3/3 12/12/12 11/11/11
f 12/12/12 3/3/3 14/14/14
f 14/14/14 13/13/13 12/12/12
f 14/14/14 3/3/3 16/16/16
f 16/16/16 15/15/15 14/14/14
f 3/3/3 4/4/4 17/17/17
f 17/17/17 16/16/16 3/3/3
f 20/20/20 19/19/19 18/18/18
f 18/18/18 21/21/21 20/20/20
f 20/20/20 23/23/23 22/22/22
f 22/22/22 19/19/19 20/20/20
f 25/25/25 24/24/24 23/23/23
f 23/23/23 20/20/20 25/25/25
f 26/26/26 25/25/25 20/20/20
f 20/20/20 27/27/27 26/26/26
f 27/27/27 20/20/20 29/29/29
f 29/29/29 28/28/28 27/27/27
f 29/29/29 20/20/20 31/31/31
f 31/31/31 30/30/30 29/29/29
f 31/31/31 20/20/20 33/33/33
f 33/33/33 32/32/32 31/31/31
f 20/20/20 21/21/21 34/13/34
f 34/13/34 33/33/33 20/20/20
f 2/39/2 5/42/5 26/41/26
f 26/41/26 27/40/27 2/39/2
f 1/43/1 2/39/2 27/40/27
f 27/40/27 28/44/28 1/43/1
f 16/46/16 31/45/31 32/48/32
f 32/48/32 15/47/15 16/46/16
f 17/50/17 30/49/30 31/45/31
f 31/45/31 16/46/16 17/50/17
f 4/53/4 29/52/29 30/51/30
f 30/51/30 17/54/17 4/53/4
f 1/56/1 28/55/28 29/52/29
f 29/52/29 4/53/4 1/56/1
f 10/57/10 11/60/11 18/59/18
f 18/59/18 19/58/19 10/57/10
f 22/62/22 9/61/9 10/57/10
f 10/57/10 19/58/19 22/62/22
f 23/64/23 8/63/8 9/66/9
f 9/66/9 22/65/22 23/64/23
f 24/68/24 7/67/7 8/63/8
f 8/63/8 23/64/23 24/68/24
f 21/70/21 18/69/18 11/72/11
f 11/72/11 12/71/12 21/70/21
f 34/35/34 21/70/21 12/71/12
f 12/71/12 13/13/13 34/35/34

